<mxfile host="app.diagrams.net" agent="Mozilla/5.0 (X11; Linux x86_64) AppleWebKit/537.36 (KHTML, like Gecko) Chrome/133.0.0.0 Safari/537.36" version="26.1.0">
  <diagram name="Page-1" id="Da6mOLrmvt9eCXJ0VtMz">
    <mxGraphModel dx="607" dy="545" grid="1" gridSize="10" guides="1" tooltips="1" connect="1" arrows="1" fold="1" page="1" pageScale="1" pageWidth="850" pageHeight="1100" math="0" shadow="0">
      <root>
        <mxCell id="0" />
        <mxCell id="1" parent="0" />
        <mxCell id="pd2klwhiELyRiXsAGR-2-5" style="rounded=0;orthogonalLoop=1;jettySize=auto;html=1;" edge="1" parent="1" source="pd2klwhiELyRiXsAGR-2-6" target="pd2klwhiELyRiXsAGR-2-7">
          <mxGeometry relative="1" as="geometry" />
        </mxCell>
        <mxCell id="pd2klwhiELyRiXsAGR-2-6" value="UI" style="shape=module;align=left;spacingLeft=20;align=center;verticalAlign=top;whiteSpace=wrap;html=1;fillColor=#dae8fc;strokeColor=#6c8ebf;" vertex="1" parent="1">
          <mxGeometry x="330" y="40" width="130" height="40" as="geometry" />
        </mxCell>
        <mxCell id="pd2klwhiELyRiXsAGR-2-7" value="Use Cases" style="shape=module;align=left;spacingLeft=20;align=center;verticalAlign=top;whiteSpace=wrap;html=1;fillColor=#f8cecc;strokeColor=#b85450;" vertex="1" parent="1">
          <mxGeometry x="500" y="40" width="130" height="40" as="geometry" />
        </mxCell>
        <mxCell id="pd2klwhiELyRiXsAGR-2-8" style="edgeStyle=orthogonalEdgeStyle;rounded=0;orthogonalLoop=1;jettySize=auto;html=1;entryX=0.5;entryY=1;entryDx=0;entryDy=0;" edge="1" parent="1" source="pd2klwhiELyRiXsAGR-2-9" target="pd2klwhiELyRiXsAGR-2-7">
          <mxGeometry relative="1" as="geometry">
            <Array as="points">
              <mxPoint x="395" y="100" />
              <mxPoint x="565" y="100" />
            </Array>
          </mxGeometry>
        </mxCell>
        <mxCell id="pd2klwhiELyRiXsAGR-2-9" value="Database" style="shape=module;align=left;spacingLeft=20;align=center;verticalAlign=top;whiteSpace=wrap;html=1;fillColor=#dae8fc;strokeColor=#6c8ebf;" vertex="1" parent="1">
          <mxGeometry x="360" y="130" width="130" height="40" as="geometry" />
        </mxCell>
        <mxCell id="pd2klwhiELyRiXsAGR-2-12" style="edgeStyle=orthogonalEdgeStyle;rounded=0;orthogonalLoop=1;jettySize=auto;html=1;" edge="1" parent="1" source="pd2klwhiELyRiXsAGR-2-10">
          <mxGeometry relative="1" as="geometry">
            <mxPoint x="565" y="80" as="targetPoint" />
          </mxGeometry>
        </mxCell>
        <mxCell id="pd2klwhiELyRiXsAGR-2-10" value="Frameworks" style="shape=module;align=left;spacingLeft=20;align=center;verticalAlign=top;whiteSpace=wrap;html=1;fillColor=#dae8fc;strokeColor=#6c8ebf;" vertex="1" parent="1">
          <mxGeometry x="500" y="130" width="130" height="40" as="geometry" />
        </mxCell>
        <mxCell id="pd2klwhiELyRiXsAGR-2-13" style="edgeStyle=orthogonalEdgeStyle;rounded=0;orthogonalLoop=1;jettySize=auto;html=1;entryX=0.5;entryY=1;entryDx=0;entryDy=0;" edge="1" parent="1" source="pd2klwhiELyRiXsAGR-2-11" target="pd2klwhiELyRiXsAGR-2-7">
          <mxGeometry relative="1" as="geometry">
            <Array as="points">
              <mxPoint x="705" y="100" />
              <mxPoint x="565" y="100" />
            </Array>
          </mxGeometry>
        </mxCell>
        <mxCell id="pd2klwhiELyRiXsAGR-2-11" value="ExternalServices" style="shape=module;align=left;spacingLeft=20;align=center;verticalAlign=top;whiteSpace=wrap;html=1;fillColor=#dae8fc;strokeColor=#6c8ebf;" vertex="1" parent="1">
          <mxGeometry x="640" y="130" width="130" height="40" as="geometry" />
        </mxCell>
      </root>
    </mxGraphModel>
  </diagram>
</mxfile>
